<svg width="256" height="13" viewBox="0 0 256 13" fill="none" xmlns="http://www.w3.org/2000/svg">
<path d="M249.811 7.7582C249.54 7.55503 249.236 7.34606 248.9 7.13128C248.576 6.9165 248.227 6.69301 247.852 6.46082C247.348 6.14155 246.837 5.81357 246.319 5.47689C245.815 5.1344 245.356 4.78611 244.942 4.43202C244.541 4.07211 244.211 3.71221 243.953 3.35231C243.707 2.9866 243.584 2.6238 243.584 2.2639C243.584 1.86917 243.746 1.52958 244.069 1.24514C244.405 0.954901 244.858 0.719804 245.427 0.539853C245.996 0.354097 246.656 0.217683 247.406 0.13061C248.156 0.0435365 248.958 0 249.811 0C250.639 0 251.428 0.0435365 252.178 0.13061C252.928 0.217683 253.588 0.354097 254.157 0.539853C254.726 0.719804 255.172 0.954901 255.495 1.24514C255.832 1.52958 256 1.86917 256 2.2639C256 2.6296 255.871 2.99531 255.612 3.36102C255.353 3.72092 255.017 4.08082 254.603 4.44072C254.202 4.79482 253.749 5.14311 253.245 5.4856C252.741 5.82228 252.236 6.15026 251.732 6.46952C251.37 6.70172 251.021 6.92521 250.684 7.13999C250.361 7.35477 250.07 7.56084 249.811 7.7582ZM244.767 10.6577C244.767 10.3327 244.903 10.0279 245.175 9.74347C245.446 9.45323 245.821 9.20362 246.3 8.99464C246.778 8.77986 247.335 8.61152 247.968 8.48962C248.602 8.36772 249.281 8.30676 250.005 8.30676C250.717 8.30676 251.389 8.36772 252.023 8.48962C252.657 8.61152 253.213 8.77986 253.691 8.99464C254.17 9.20362 254.545 9.45323 254.816 9.74347C255.088 10.0279 255.224 10.3327 255.224 10.6577C255.224 10.9828 255.088 11.2876 254.816 11.572C254.545 11.8506 254.17 12.0973 253.691 12.3121C253.213 12.5269 252.657 12.6952 252.023 12.8171C251.389 12.939 250.717 13 250.005 13C249.281 13 248.602 12.939 247.968 12.8171C247.335 12.6952 246.778 12.5269 246.3 12.3121C245.821 12.0973 245.446 11.8506 245.175 11.572C244.903 11.2876 244.767 10.9828 244.767 10.6577Z" fill="#FDE870"/>
<path d="M206.937 11.9812H210.331V1.00998H206.937V0.330811H236.987V4.57127H235.668L230.274 1.00998H223.717V6.19082H226.647L229.207 3.31741H230.468V9.76082H229.207L226.647 6.86999H223.717V11.9812H230.953L236.579 8.01936H237.918V12.6691H206.937V11.9812Z" fill="#FDE870"/>
<path d="M172.485 10.3977C172.485 10.1852 172.633 9.98642 172.927 9.80121C173.205 9.61056 173.598 9.44715 174.105 9.31097C174.629 9.16935 175.242 9.05768 175.946 8.97597C176.666 8.89427 177.443 8.85341 178.278 8.85341C179.129 8.85341 179.906 8.89427 180.609 8.97597C181.329 9.05768 181.943 9.16935 182.45 9.31097C182.957 9.44715 183.35 9.61056 183.628 9.80121C183.906 9.98642 184.045 10.1852 184.045 10.3977C184.045 10.7354 183.71 11.035 183.039 11.2965C182.368 11.5579 181.46 11.7431 180.315 11.8521C180.626 11.8956 180.969 11.9283 181.346 11.9501C181.738 11.9719 182.107 11.9828 182.45 11.9828C183.121 11.9828 183.686 11.9419 184.144 11.8602C184.618 11.7731 185.003 11.6587 185.297 11.5171C185.592 11.3754 185.804 11.212 185.935 11.0268C186.066 10.8362 186.132 10.6346 186.132 10.4222C186.132 10.1662 185.952 9.89382 185.592 9.60512C185.248 9.31642 184.864 9.025 184.438 8.73085C183.964 8.41492 183.53 8.10716 183.137 7.80756C182.761 7.50252 182.573 7.222 182.573 6.96598V1.41808H178.278V0.780762H203.803V1.41808H199.508V8.95146C199.508 9.68138 199.238 10.286 198.698 10.7654C198.175 11.2393 197.381 11.6178 196.317 11.9011C195.27 12.1843 193.953 12.3832 192.366 12.4975C190.795 12.6119 188.954 12.6691 186.843 12.6691C184.913 12.6691 183.08 12.6174 181.346 12.5139C179.611 12.4104 178.081 12.2606 176.756 12.0645C175.447 11.8684 174.408 11.6315 173.639 11.3536C172.87 11.0704 172.485 10.7517 172.485 10.3977Z" fill="#FDE870"/>
<path d="M143.255 12.0063C144.317 12.0063 145.13 11.9756 145.693 11.914C146.27 11.8525 146.637 11.7407 146.795 11.5785L156.923 0.780762H165.556L177.415 12.0063H180.836L186.056 12.6691H158.535V12.0063H162.331L159.617 9.11185H150.964L148.663 11.5533C148.65 11.5701 148.643 11.5924 148.643 11.6204C148.643 11.6987 148.729 11.763 148.899 11.8134C149.083 11.8581 149.332 11.8973 149.646 11.9308C149.974 11.9588 150.354 11.9784 150.787 11.9896C151.233 12.0007 151.718 12.0063 152.242 12.0063V12.6691H143.255V12.0063ZM159.007 8.44905L155.212 4.48906L151.574 8.44905H159.007Z" fill="#FDE870"/>
<path d="M120.725 11.9812H124.12V1.00998H120.725V0.330811H140.881V1.00998H137.505V11.9812H140.881V12.6691H120.725V11.9812Z" fill="#FDE870"/>
<path d="M86.6399 1.00998H83.7881V0.330811H104.507V1.00998H101.093L107.65 8.62016L113.528 1.54983C113.567 1.49759 113.586 1.45115 113.586 1.41052C113.586 1.33505 113.496 1.2741 113.315 1.22766C113.146 1.17542 112.901 1.13478 112.577 1.10576C112.267 1.07093 111.892 1.04771 111.452 1.0361C111.025 1.01869 110.553 1.00998 110.036 1.00998V0.330811H119.076V1.00998C117.938 1.00998 117.098 1.05061 116.554 1.13188C116.024 1.21315 115.675 1.35247 115.507 1.54983L106.331 12.6691H98.0081L86.6399 1.00998Z" fill="#FDE870"/>
<path d="M37.4223 1.00998H34.0273V0.330811H54.1837V1.00998H50.8082V7.73202C50.8082 8.27767 50.8728 8.79721 51.0022 9.29062C51.1315 9.78404 51.3966 10.2194 51.7976 10.5967C52.2114 10.9682 52.7934 11.2643 53.5435 11.4849C54.3066 11.7054 55.3154 11.8157 56.5699 11.8157C57.0484 11.8157 57.5399 11.7954 58.0443 11.7548C58.5487 11.7083 59.0337 11.6242 59.4993 11.5023C59.9778 11.3804 60.424 11.212 60.8379 10.9973C61.2647 10.7825 61.6333 10.5067 61.9437 10.1701C62.267 9.82757 62.5192 9.41833 62.7003 8.94233C62.8813 8.46053 62.9719 7.89165 62.9719 7.2357V1.52371C62.9719 1.35537 62.6809 1.22766 62.0989 1.14059C61.5298 1.05352 60.6827 1.00998 59.5575 1.00998V0.330811H67.9964V1.00998C66.8841 1.00998 66.0435 1.05352 65.4744 1.14059C64.9054 1.22766 64.6208 1.35537 64.6208 1.52371V6.9919C64.6208 8.04838 64.401 8.95684 63.9612 9.71728C63.5344 10.4719 62.8037 11.093 61.7691 11.5806C60.7473 12.0683 59.3829 12.4282 57.6757 12.6603C55.9815 12.8867 53.8669 12.9999 51.332 12.9999C49.5731 12.9999 48.0081 12.9303 46.6372 12.791C45.2663 12.6516 44.0635 12.4572 43.0289 12.2076C41.9942 11.9522 41.1212 11.6503 40.4099 11.302C39.6986 10.9479 39.123 10.5619 38.6833 10.1439C38.2436 9.72018 37.9202 9.27031 37.7133 8.79431C37.5193 8.31831 37.4223 7.8278 37.4223 7.32277V1.00998Z" fill="#FDE870"/>
<path d="M5.50954 11.9812H8.88511V1.00998H6.09154L1.33859 5.31139H0V0.330811H31.1755V5.31139H29.8175L25.0839 1.00998H22.271V11.9812H25.6659V12.6691H5.50954V11.9812Z" fill="#FDE870"/>
</svg>
